<svg width="165" height="30" viewBox="0 0 165 30" fill="none" xmlns="http://www.w3.org/2000/svg">
<g clip-path="url(#clip0_1_7074)">
<mask id="path-1-inside-1_1_7074" fill="white">
<path d="M4.30079 14.6734H7.60437V18.1944H1.04688L4.30079 14.6734ZM9.61631 8.86378L13.1931 4.96558V14.6734H15.2299V18.1944H13.1931V22.2938H9.61631V8.86378ZM23.8359 22.6207C23.0245 22.4866 22.2711 22.2267 21.5756 21.8411C20.8801 21.4387 20.2591 20.9441 19.7126 20.3573C19.0999 19.6698 18.6611 18.9237 18.3962 18.1189C18.1312 17.2974 17.9987 16.2746 17.9987 15.0507V5.46858H21.5756V14.7237C21.5756 15.3776 21.6087 15.9309 21.6749 16.3836C21.7411 16.8363 21.8571 17.2219 22.0227 17.5405C22.2048 17.8591 22.4366 18.1273 22.7181 18.3453C23.0162 18.5633 23.3888 18.7561 23.8359 18.9237V22.6207ZM25.7982 18.9237C26.2453 18.7728 26.6096 18.5884 26.8911 18.3704C27.1892 18.1525 27.4293 17.8758 27.6115 17.5405C27.7936 17.2387 27.9178 16.8866 27.984 16.4842C28.0503 16.065 28.0834 15.4782 28.0834 14.7237V5.46858H31.6602V15.0507C31.6602 16.2746 31.5277 17.2974 31.2628 18.1189C30.9978 18.9237 30.559 19.6698 29.9463 20.3573C29.3999 20.9609 28.7706 21.4555 28.0585 21.8411C27.3465 22.2267 26.593 22.4866 25.7982 22.6207V18.9237Z"/>
</mask>
<path d="M4.30079 14.6734H7.60437V18.1944H1.04688L4.30079 14.6734ZM9.61631 8.86378L13.1931 4.96558V14.6734H15.2299V18.1944H13.1931V22.2938H9.61631V8.86378ZM23.8359 22.6207C23.0245 22.4866 22.2711 22.2267 21.5756 21.8411C20.8801 21.4387 20.2591 20.9441 19.7126 20.3573C19.0999 19.6698 18.6611 18.9237 18.3962 18.1189C18.1312 17.2974 17.9987 16.2746 17.9987 15.0507V5.46858H21.5756V14.7237C21.5756 15.3776 21.6087 15.9309 21.6749 16.3836C21.7411 16.8363 21.8571 17.2219 22.0227 17.5405C22.2048 17.8591 22.4366 18.1273 22.7181 18.3453C23.0162 18.5633 23.3888 18.7561 23.8359 18.9237V22.6207ZM25.7982 18.9237C26.2453 18.7728 26.6096 18.5884 26.8911 18.3704C27.1892 18.1525 27.4293 17.8758 27.6115 17.5405C27.7936 17.2387 27.9178 16.8866 27.984 16.4842C28.0503 16.065 28.0834 15.4782 28.0834 14.7237V5.46858H31.6602V15.0507C31.6602 16.2746 31.5277 17.2974 31.2628 18.1189C30.9978 18.9237 30.559 19.6698 29.9463 20.3573C29.3999 20.9609 28.7706 21.4555 28.0585 21.8411C27.3465 22.2267 26.593 22.4866 25.7982 22.6207V18.9237Z" fill="#BE0101"/>
<path d="M4.30079 14.6734V-17.3266H-9.69872L-19.2003 -7.04522L4.30079 14.6734ZM7.60437 14.6734H39.6044V-17.3266H7.60437V14.6734ZM7.60437 18.1944V50.1944H39.6044V18.1944H7.60437ZM1.04688 18.1944L-22.4542 -3.52426L-72.0986 50.1944H1.04688V18.1944ZM9.61631 8.86378L-13.9622 -12.7708L-22.3837 -3.59261V8.86378H9.61631ZM13.1931 4.96558H45.1931V-77.2412L-10.3853 -16.669L13.1931 4.96558ZM13.1931 14.6734H-18.8069V46.6734H13.1931V14.6734ZM15.2299 14.6734H47.2299V-17.3266H15.2299V14.6734ZM15.2299 18.1944V50.1944H47.2299V18.1944H15.2299ZM13.1931 18.1944V-13.8056H-18.8069V18.1944H13.1931ZM13.1931 22.2938V54.2938H45.1931V22.2938H13.1931ZM9.61631 22.2938H-22.3837V54.2938H9.61631V22.2938ZM23.8359 22.6207L18.6174 54.1924L55.8359 60.3442V22.6207H23.8359ZM21.5756 21.8411L5.54971 49.539L5.8027 49.6854L6.05832 49.8271L21.5756 21.8411ZM19.7126 20.3573L-4.17632 41.6485L-3.94409 41.9091L-3.70624 42.1645L19.7126 20.3573ZM18.3962 18.1189L-12.0591 27.9413L-12.0295 28.0331L-11.9993 28.1247L18.3962 18.1189ZM17.9987 5.46858V-26.5314H-14.0013V5.46858H17.9987ZM21.5756 5.46858H53.5756V-26.5314H21.5756V5.46858ZM21.6749 16.3836L53.3378 11.7513L53.3378 11.7509L21.6749 16.3836ZM22.0227 17.5405L-6.37161 32.2974L-6.0757 32.8668L-5.7572 33.4238L22.0227 17.5405ZM22.7181 18.3453L3.12666 43.6469L3.47375 43.9157L3.82807 44.1748L22.7181 18.3453ZM23.8359 18.9237H55.8359V-3.2516L35.0727 -11.0385L23.8359 18.9237ZM25.7982 18.9237L15.564 -11.3956L-6.20183 -4.04859V18.9237H25.7982ZM26.8911 18.3704L8.00169 -7.45959L7.64792 -7.20088L7.30137 -6.93258L26.8911 18.3704ZM27.6115 17.5405L0.214183 1.00601L-0.160493 1.62684L-0.506663 2.26401L27.6115 17.5405ZM27.984 16.4842L59.5592 21.6812L59.5759 21.58L59.5919 21.4786L27.984 16.4842ZM28.0834 5.46858V-26.5314H-3.91661V5.46858H28.0834ZM31.6602 5.46858H63.6602V-26.5314H31.6602V5.46858ZM31.2628 18.1189L61.6582 28.1247L61.6884 28.0331L61.718 27.9413L31.2628 18.1189ZM29.9463 20.3573L53.6688 41.8339L53.7524 41.7415L53.8353 41.6485L29.9463 20.3573ZM28.0585 21.8411L12.8195 -6.29737L12.8189 -6.29702L28.0585 21.8411ZM25.7982 22.6207H-6.20183V60.4725L31.1224 54.1747L25.7982 22.6207ZM4.30079 46.6734H7.60437V-17.3266H4.30079V46.6734ZM-24.3956 14.6734V18.1944H39.6044V14.6734H-24.3956ZM7.60437 -13.8056H1.04688V50.1944H7.60437V-13.8056ZM24.548 39.913L27.8019 36.3921L-19.2003 -7.04522L-22.4542 -3.52426L24.548 39.913ZM33.1948 30.4984L36.7716 26.6002L-10.3853 -16.669L-13.9622 -12.7708L33.1948 30.4984ZM-18.8069 4.96558V14.6734H45.1931V4.96558H-18.8069ZM13.1931 46.6734H15.2299V-17.3266H13.1931V46.6734ZM-16.7701 14.6734V18.1944H47.2299V14.6734H-16.7701ZM15.2299 -13.8056H13.1931V50.1944H15.2299V-13.8056ZM-18.8069 18.1944V22.2938H45.1931V18.1944H-18.8069ZM13.1931 -9.70622H9.61631V54.2938H13.1931V-9.70622ZM41.6163 22.2938V8.86378H-22.3837V22.2938H41.6163ZM29.0544 -8.95089C31.7312 -8.50844 34.4773 -7.59511 37.0928 -6.14489L6.05832 49.8271C10.0649 52.0486 14.3178 53.4817 18.6174 54.1924L29.0544 -8.95089ZM37.6014 -5.85678C39.6419 -4.67613 41.5138 -3.18723 43.1315 -1.45001L-3.70624 42.1645C-0.995653 45.0754 2.11821 47.5535 5.54971 49.539L37.6014 -5.85678ZM43.6016 -0.934017C45.6516 1.36618 47.5686 4.398 48.7916 8.11316L-11.9993 28.1247C-10.2465 33.4495 -7.45176 37.9735 -4.17632 41.6485L43.6016 -0.934017ZM48.8514 8.29655C49.9392 11.6694 49.9987 14.2154 49.9987 15.0507H-14.0013C-14.0013 18.3338 -13.6768 22.9254 -12.0591 27.9413L48.8514 8.29655ZM49.9987 15.0507V5.46858H-14.0013V15.0507H49.9987ZM17.9987 37.4686H21.5756V-26.5314H17.9987V37.4686ZM-10.4245 5.46858V14.7237H53.5756V5.46858H-10.4245ZM-10.4245 14.7237C-10.4245 16.3292 -10.3513 18.5333 -9.98799 21.0162L53.3378 11.7509C53.4608 12.5918 53.5162 13.2662 53.5432 13.7172C53.5708 14.1779 53.5756 14.5225 53.5756 14.7237H-10.4245ZM-9.98805 21.0158C-9.53936 24.0828 -8.564 28.0789 -6.37161 32.2974L50.4169 2.78361C52.2782 6.36488 53.0216 9.58983 53.3378 11.7513L-9.98805 21.0158ZM-5.7572 33.4238C-3.55434 37.2766 -0.576655 40.7794 3.12666 43.6469L42.3096 -6.95641C45.45 -4.52479 47.9639 -1.55849 49.8025 1.65718L-5.7572 33.4238ZM3.82807 44.1748C7.0486 46.5301 10.1781 47.978 12.5991 48.8859L35.0727 -11.0385C36.5995 -10.4659 38.9838 -9.40358 41.6082 -7.48429L3.82807 44.1748ZM-8.16409 18.9237V22.6207H55.8359V18.9237H-8.16409ZM36.0324 49.2431C38.8235 48.3009 42.6332 46.6523 46.4809 43.6734L7.30137 -6.93258C10.586 -9.47555 13.6671 -10.7553 15.564 -11.3956L36.0324 49.2431ZM45.7806 44.2004C50.0266 41.0953 53.3669 37.1657 55.7296 32.817L-0.506663 2.26401C1.49164 -1.41409 4.35175 -4.79039 8.00169 -7.45959L45.7806 44.2004ZM55.0087 34.075C57.593 29.7929 58.9351 25.4732 59.5592 21.6812L-3.59112 11.2871C-3.09945 8.29992 -2.00579 4.68446 0.214183 1.00601L55.0087 34.075ZM59.5919 21.4786C60.0454 18.6082 60.0834 16.078 60.0834 14.7237H-3.91661C-3.91661 14.6584 -3.91584 14.3737 -3.89062 13.9268C-3.86795 13.525 -3.80747 12.6521 -3.62381 11.4898L59.5919 21.4786ZM60.0834 14.7237V5.46858H-3.91661V14.7237H60.0834ZM28.0834 37.4686H31.6602V-26.5314H28.0834V37.4686ZM-0.339794 5.46858V15.0507H63.6602V5.46858H-0.339794ZM-0.339794 15.0507C-0.339794 14.2154 -0.280245 11.6694 0.807549 8.29655L61.718 27.9413C63.3357 22.9254 63.6602 18.3338 63.6602 15.0507H-0.339794ZM0.867305 8.11316C2.09029 4.398 4.00729 1.36618 6.05736 -0.934017L53.8353 41.6485C57.1107 37.9735 59.9054 33.4495 61.6582 28.1247L0.867305 8.11316ZM6.22384 -1.11935C8.09442 -3.18554 10.3296 -4.9489 12.8195 -6.29737L43.2975 49.9796C47.2116 47.8598 50.7053 45.1073 53.6688 41.8339L6.22384 -1.11935ZM12.8189 -6.29702C15.1873 -7.57977 17.7823 -8.47906 20.474 -8.93323L31.1224 54.1747C35.4038 53.4523 39.5056 52.0332 43.2982 49.9792L12.8189 -6.29702ZM57.7982 22.6207V18.9237H-6.20183V22.6207H57.7982Z" fill="black" mask="url(#path-1-inside-1_1_7074)"/>
<mask id="path-3-inside-2_1_7074" fill="white">
<path d="M45.0328 19.8954H50.6744V22.6276H41.5986V5.44611H45.0328V19.8954ZM60.8044 22.8C59.202 22.8 57.7303 22.4225 56.3891 21.6676C55.0482 20.9128 53.9852 19.8707 53.2003 18.5415C52.4155 17.1958 52.0231 15.6779 52.0231 13.9876C52.0231 12.3138 52.4155 10.8123 53.2003 9.48303C53.9852 8.13739 55.0482 7.08715 56.3891 6.33227C57.7303 5.57739 59.202 5.19995 60.8044 5.19995C62.4235 5.19995 63.8951 5.57739 65.2198 6.33227C66.5606 7.08715 67.6154 8.13739 68.384 9.48303C69.1688 10.8123 69.5612 12.3138 69.5612 13.9876C69.5612 15.6779 69.1688 17.1958 68.384 18.5415C67.6154 19.8707 66.5606 20.9128 65.2198 21.6676C63.8789 22.4225 62.4069 22.8 60.8044 22.8ZM60.8044 19.723C61.8347 19.723 62.7424 19.4933 63.5272 19.0338C64.312 18.5579 64.9254 17.8851 65.3668 17.0154C65.8082 16.1456 66.0291 15.1364 66.0291 13.9876C66.0291 12.8389 65.8082 11.8379 65.3668 10.9846C64.9254 10.1148 64.312 9.45023 63.5272 8.99071C62.7424 8.53123 61.8347 8.30147 60.8044 8.30147C59.7742 8.30147 58.8585 8.53123 58.0571 8.99071C57.2723 9.45023 56.659 10.1148 56.2176 10.9846C55.7761 11.8379 55.5552 12.8389 55.5552 13.9876C55.5552 15.1364 55.7761 16.1456 56.2176 17.0154C56.659 17.8851 57.2723 18.5579 58.0571 19.0338C58.8585 19.4933 59.7742 19.723 60.8044 19.723ZM84.0371 10.6154C83.6447 9.89327 83.1049 9.34355 82.418 8.96611C81.7312 8.58867 80.9302 8.39995 80.0142 8.39995C79.0005 8.39995 78.1011 8.62971 77.3162 9.08919C76.531 9.54867 75.9181 10.2051 75.4763 11.0584C75.0349 11.9118 74.814 12.8964 74.814 14.0123C74.814 15.161 75.0349 16.162 75.4763 17.0154C75.9343 17.8687 76.5638 18.5251 77.3653 18.9846C78.1663 19.4441 79.0985 19.6738 80.1616 19.6738C81.4696 19.6738 82.5409 19.3292 83.3748 18.64C84.2086 17.9343 84.7567 16.9579 85.0183 15.7107H79.1313V13.0769H88.403V16.08C88.1742 17.2779 87.6838 18.3856 86.9314 19.403C86.1794 20.4205 85.2064 21.241 84.0126 21.8646C82.835 22.4718 81.5107 22.7754 80.0387 22.7754C78.3872 22.7754 76.891 22.4061 75.5502 21.6676C74.2255 20.9128 73.1787 19.8707 72.4105 18.5415C71.6581 17.2123 71.2818 15.7025 71.2818 14.0123C71.2818 12.322 71.6581 10.8123 72.4105 9.48303C73.1787 8.13739 74.2255 7.09535 75.5502 6.35687C76.891 5.60199 78.3789 5.22455 80.0142 5.22455C81.9438 5.22455 83.6202 5.70047 85.0428 6.65227C86.4655 7.58763 87.4467 8.90867 87.9861 10.6154H84.0371ZM94.3782 5.44611V22.6276H90.9441V5.44611H94.3782ZM103.682 22.8C102.488 22.8 101.409 22.5948 100.445 22.1846C99.4962 21.7743 98.7437 21.1836 98.1877 20.4123C97.6317 19.641 97.3456 18.7302 97.3294 17.68H101.009C101.058 18.3856 101.303 18.9436 101.744 19.3538C102.202 19.7641 102.824 19.9692 103.609 19.9692C104.41 19.9692 105.039 19.7805 105.497 19.403C105.955 19.0092 106.184 18.5005 106.184 17.8769C106.184 17.3682 106.029 16.9497 105.718 16.6215C105.407 16.2933 105.015 16.0389 104.541 15.8584C104.083 15.6615 103.445 15.4482 102.628 15.2184C101.516 14.8902 100.608 14.5702 99.9048 14.2584C99.218 13.9302 98.6212 13.4461 98.1142 12.8061C97.6234 12.1497 97.3784 11.28 97.3784 10.1969C97.3784 9.17943 97.6317 8.29327 98.1387 7.53843C98.6457 6.78355 99.3571 6.20919 100.273 5.81535C101.188 5.40507 102.235 5.19995 103.412 5.19995C105.178 5.19995 106.609 5.63483 107.705 6.50455C108.817 7.35791 109.43 8.55583 109.545 10.0984H105.767C105.734 9.50763 105.481 9.02355 105.007 8.64611C104.549 8.25227 103.936 8.05535 103.167 8.05535C102.497 8.05535 101.957 8.22763 101.548 8.57227C101.156 8.91687 100.96 9.41739 100.96 10.0738C100.96 10.5333 101.107 10.9189 101.401 11.2307C101.712 11.5261 102.088 11.7723 102.53 11.9692C102.987 12.1497 103.625 12.363 104.443 12.6092C105.555 12.9374 106.462 13.2656 107.165 13.5938C107.868 13.922 108.473 14.4143 108.981 15.0707C109.488 15.7271 109.741 16.5887 109.741 17.6554C109.741 18.5743 109.504 19.4276 109.03 20.2154C108.555 21.003 107.86 21.6348 106.945 22.1107C106.029 22.5702 104.941 22.8 103.682 22.8ZM124.369 5.44611V8.22763H119.807V22.6276H116.373V8.22763H111.81V5.44611H124.369ZM130.309 5.44611V22.6276H126.875V5.44611H130.309ZM132.868 14.0123C132.868 12.322 133.244 10.8123 133.996 9.48303C134.765 8.13739 135.803 7.09535 137.111 6.35687C138.436 5.60199 139.916 5.22455 141.551 5.22455C143.464 5.22455 145.14 5.71687 146.58 6.70151C148.018 7.68611 149.024 9.04815 149.596 10.7876H145.647C145.255 9.96715 144.699 9.35175 143.979 8.94151C143.276 8.53123 142.459 8.32611 141.526 8.32611C140.529 8.32611 139.638 8.56407 138.853 9.03995C138.084 9.49943 137.479 10.1558 137.038 11.0092C136.612 11.8625 136.4 12.8636 136.4 14.0123C136.4 15.1446 136.612 16.1456 137.038 17.0154C137.479 17.8687 138.084 18.5333 138.853 19.0092C139.638 19.4687 140.529 19.6984 141.526 19.6984C142.459 19.6984 143.276 19.4933 143.979 19.083C144.699 18.6564 145.255 18.0328 145.647 17.2123H149.596C149.024 18.9682 148.018 20.3384 146.58 21.323C145.157 22.2912 143.481 22.7754 141.551 22.7754C139.916 22.7754 138.436 22.4061 137.111 21.6676C135.803 20.9128 134.765 19.8707 133.996 18.5415C133.244 17.2123 132.868 15.7025 132.868 14.0123ZM158.441 22.8C157.247 22.8 156.168 22.5948 155.203 22.1846C154.255 21.7743 153.503 21.1836 152.947 20.4123C152.391 19.641 152.105 18.7302 152.088 17.68H155.768C155.817 18.3856 156.062 18.9436 156.503 19.3538C156.961 19.7641 157.583 19.9692 158.367 19.9692C159.169 19.9692 159.798 19.7805 160.256 19.403C160.714 19.0092 160.943 18.5005 160.943 17.8769C160.943 17.3682 160.788 16.9497 160.477 16.6215C160.166 16.2933 159.774 16.0389 159.3 15.8584C158.842 15.6615 158.204 15.4482 157.387 15.2184C156.275 14.8902 155.367 14.5702 154.664 14.2584C153.977 13.9302 153.38 13.4461 152.873 12.8061C152.382 12.1497 152.137 11.28 152.137 10.1969C152.137 9.17943 152.391 8.29327 152.898 7.53843C153.405 6.78355 154.116 6.20919 155.032 5.81535C155.947 5.40507 156.994 5.19995 158.171 5.19995C159.937 5.19995 161.368 5.63483 162.464 6.50455C163.576 7.35791 164.189 8.55583 164.303 10.0984H160.526C160.493 9.50763 160.24 9.02355 159.766 8.64611C159.308 8.25227 158.695 8.05535 157.926 8.05535C157.256 8.05535 156.716 8.22763 156.307 8.57227C155.915 8.91687 155.719 9.41739 155.719 10.0738C155.719 10.5333 155.866 10.9189 156.16 11.2307C156.471 11.5261 156.847 11.7723 157.288 11.9692C157.746 12.1497 158.384 12.363 159.202 12.6092C160.314 12.9374 161.221 13.2656 161.924 13.5938C162.627 13.922 163.232 14.4143 163.74 15.0707C164.247 15.7271 164.5 16.5887 164.5 17.6554C164.5 18.5743 164.263 19.4276 163.789 20.2154C163.314 21.003 162.619 21.6348 161.704 22.1107C160.788 22.5702 159.7 22.8 158.441 22.8Z"/>
</mask>
<path d="M45.0328 19.8954H50.6744V22.6276H41.5986V5.44611H45.0328V19.8954ZM60.8044 22.8C59.202 22.8 57.7303 22.4225 56.3891 21.6676C55.0482 20.9128 53.9852 19.8707 53.2003 18.5415C52.4155 17.1958 52.0231 15.6779 52.0231 13.9876C52.0231 12.3138 52.4155 10.8123 53.2003 9.48303C53.9852 8.13739 55.0482 7.08715 56.3891 6.33227C57.7303 5.57739 59.202 5.19995 60.8044 5.19995C62.4235 5.19995 63.8951 5.57739 65.2198 6.33227C66.5606 7.08715 67.6154 8.13739 68.384 9.48303C69.1688 10.8123 69.5612 12.3138 69.5612 13.9876C69.5612 15.6779 69.1688 17.1958 68.384 18.5415C67.6154 19.8707 66.5606 20.9128 65.2198 21.6676C63.8789 22.4225 62.4069 22.8 60.8044 22.8ZM60.8044 19.723C61.8347 19.723 62.7424 19.4933 63.5272 19.0338C64.312 18.5579 64.9254 17.8851 65.3668 17.0154C65.8082 16.1456 66.0291 15.1364 66.0291 13.9876C66.0291 12.8389 65.8082 11.8379 65.3668 10.9846C64.9254 10.1148 64.312 9.45023 63.5272 8.99071C62.7424 8.53123 61.8347 8.30147 60.8044 8.30147C59.7742 8.30147 58.8585 8.53123 58.0571 8.99071C57.2723 9.45023 56.659 10.1148 56.2176 10.9846C55.7761 11.8379 55.5552 12.8389 55.5552 13.9876C55.5552 15.1364 55.7761 16.1456 56.2176 17.0154C56.659 17.8851 57.2723 18.5579 58.0571 19.0338C58.8585 19.4933 59.7742 19.723 60.8044 19.723ZM84.0371 10.6154C83.6447 9.89327 83.1049 9.34355 82.418 8.96611C81.7312 8.58867 80.9302 8.39995 80.0142 8.39995C79.0005 8.39995 78.1011 8.62971 77.3162 9.08919C76.531 9.54867 75.9181 10.2051 75.4763 11.0584C75.0349 11.9118 74.814 12.8964 74.814 14.0123C74.814 15.161 75.0349 16.162 75.4763 17.0154C75.9343 17.8687 76.5638 18.5251 77.3653 18.9846C78.1663 19.4441 79.0985 19.6738 80.1616 19.6738C81.4696 19.6738 82.5409 19.3292 83.3748 18.64C84.2086 17.9343 84.7567 16.9579 85.0183 15.7107H79.1313V13.0769H88.403V16.08C88.1742 17.2779 87.6838 18.3856 86.9314 19.403C86.1794 20.4205 85.2064 21.241 84.0126 21.8646C82.835 22.4718 81.5107 22.7754 80.0387 22.7754C78.3872 22.7754 76.891 22.4061 75.5502 21.6676C74.2255 20.9128 73.1787 19.8707 72.4105 18.5415C71.6581 17.2123 71.2818 15.7025 71.2818 14.0123C71.2818 12.322 71.6581 10.8123 72.4105 9.48303C73.1787 8.13739 74.2255 7.09535 75.5502 6.35687C76.891 5.60199 78.3789 5.22455 80.0142 5.22455C81.9438 5.22455 83.6202 5.70047 85.0428 6.65227C86.4655 7.58763 87.4467 8.90867 87.9861 10.6154H84.0371ZM94.3782 5.44611V22.6276H90.9441V5.44611H94.3782ZM103.682 22.8C102.488 22.8 101.409 22.5948 100.445 22.1846C99.4962 21.7743 98.7437 21.1836 98.1877 20.4123C97.6317 19.641 97.3456 18.7302 97.3294 17.68H101.009C101.058 18.3856 101.303 18.9436 101.744 19.3538C102.202 19.7641 102.824 19.9692 103.609 19.9692C104.41 19.9692 105.039 19.7805 105.497 19.403C105.955 19.0092 106.184 18.5005 106.184 17.8769C106.184 17.3682 106.029 16.9497 105.718 16.6215C105.407 16.2933 105.015 16.0389 104.541 15.8584C104.083 15.6615 103.445 15.4482 102.628 15.2184C101.516 14.8902 100.608 14.5702 99.9048 14.2584C99.218 13.9302 98.6212 13.4461 98.1142 12.8061C97.6234 12.1497 97.3784 11.28 97.3784 10.1969C97.3784 9.17943 97.6317 8.29327 98.1387 7.53843C98.6457 6.78355 99.3571 6.20919 100.273 5.81535C101.188 5.40507 102.235 5.19995 103.412 5.19995C105.178 5.19995 106.609 5.63483 107.705 6.50455C108.817 7.35791 109.43 8.55583 109.545 10.0984H105.767C105.734 9.50763 105.481 9.02355 105.007 8.64611C104.549 8.25227 103.936 8.05535 103.167 8.05535C102.497 8.05535 101.957 8.22763 101.548 8.57227C101.156 8.91687 100.96 9.41739 100.96 10.0738C100.96 10.5333 101.107 10.9189 101.401 11.2307C101.712 11.5261 102.088 11.7723 102.53 11.9692C102.987 12.1497 103.625 12.363 104.443 12.6092C105.555 12.9374 106.462 13.2656 107.165 13.5938C107.868 13.922 108.473 14.4143 108.981 15.0707C109.488 15.7271 109.741 16.5887 109.741 17.6554C109.741 18.5743 109.504 19.4276 109.03 20.2154C108.555 21.003 107.86 21.6348 106.945 22.1107C106.029 22.5702 104.941 22.8 103.682 22.8ZM124.369 5.44611V8.22763H119.807V22.6276H116.373V8.22763H111.81V5.44611H124.369ZM130.309 5.44611V22.6276H126.875V5.44611H130.309ZM132.868 14.0123C132.868 12.322 133.244 10.8123 133.996 9.48303C134.765 8.13739 135.803 7.09535 137.111 6.35687C138.436 5.60199 139.916 5.22455 141.551 5.22455C143.464 5.22455 145.14 5.71687 146.58 6.70151C148.018 7.68611 149.024 9.04815 149.596 10.7876H145.647C145.255 9.96715 144.699 9.35175 143.979 8.94151C143.276 8.53123 142.459 8.32611 141.526 8.32611C140.529 8.32611 139.638 8.56407 138.853 9.03995C138.084 9.49943 137.479 10.1558 137.038 11.0092C136.612 11.8625 136.4 12.8636 136.4 14.0123C136.4 15.1446 136.612 16.1456 137.038 17.0154C137.479 17.8687 138.084 18.5333 138.853 19.0092C139.638 19.4687 140.529 19.6984 141.526 19.6984C142.459 19.6984 143.276 19.4933 143.979 19.083C144.699 18.6564 145.255 18.0328 145.647 17.2123H149.596C149.024 18.9682 148.018 20.3384 146.58 21.323C145.157 22.2912 143.481 22.7754 141.551 22.7754C139.916 22.7754 138.436 22.4061 137.111 21.6676C135.803 20.9128 134.765 19.8707 133.996 18.5415C133.244 17.2123 132.868 15.7025 132.868 14.0123ZM158.441 22.8C157.247 22.8 156.168 22.5948 155.203 22.1846C154.255 21.7743 153.503 21.1836 152.947 20.4123C152.391 19.641 152.105 18.7302 152.088 17.68H155.768C155.817 18.3856 156.062 18.9436 156.503 19.3538C156.961 19.7641 157.583 19.9692 158.367 19.9692C159.169 19.9692 159.798 19.7805 160.256 19.403C160.714 19.0092 160.943 18.5005 160.943 17.8769C160.943 17.3682 160.788 16.9497 160.477 16.6215C160.166 16.2933 159.774 16.0389 159.3 15.8584C158.842 15.6615 158.204 15.4482 157.387 15.2184C156.275 14.8902 155.367 14.5702 154.664 14.2584C153.977 13.9302 153.38 13.4461 152.873 12.8061C152.382 12.1497 152.137 11.28 152.137 10.1969C152.137 9.17943 152.391 8.29327 152.898 7.53843C153.405 6.78355 154.116 6.20919 155.032 5.81535C155.947 5.40507 156.994 5.19995 158.171 5.19995C159.937 5.19995 161.368 5.63483 162.464 6.50455C163.576 7.35791 164.189 8.55583 164.303 10.0984H160.526C160.493 9.50763 160.24 9.02355 159.766 8.64611C159.308 8.25227 158.695 8.05535 157.926 8.05535C157.256 8.05535 156.716 8.22763 156.307 8.57227C155.915 8.91687 155.719 9.41739 155.719 10.0738C155.719 10.5333 155.866 10.9189 156.16 11.2307C156.471 11.5261 156.847 11.7723 157.288 11.9692C157.746 12.1497 158.384 12.363 159.202 12.6092C160.314 12.9374 161.221 13.2656 161.924 13.5938C162.627 13.922 163.232 14.4143 163.74 15.0707C164.247 15.7271 164.5 16.5887 164.5 17.6554C164.5 18.5743 164.263 19.4276 163.789 20.2154C163.314 21.003 162.619 21.6348 161.704 22.1107C160.788 22.5702 159.7 22.8 158.441 22.8Z" fill="#BE0101" stroke="#BE0101" stroke-width="70" mask="url(#path-3-inside-2_1_7074)"/>
<path d="M36.6592 5.19995V22.8" stroke="#BE0101"/>
</g>
<defs>
<clipPath id="clip0_1_7074">
<rect width="164" height="32" fill="white" transform="translate(0.5)"/>
</clipPath>
</defs>
</svg>
